<svg xmlns="http://www.w3.org/2000/svg" viewBox="0 0 535.328 535.328">
  <path fill="#FFF" fill-rule="evenodd" d="M519.629 267.674c0 139.137-112.813 251.955-251.978 251.955-139.166 0-251.952-112.818-251.952-251.955 0-139.162 112.787-251.975 251.952-251.975 139.164 0 251.978 112.815 251.978 251.975z" clip-rule="evenodd"/>
  <path fill-rule="evenodd" d="M522.486 267.674c0 70.358-28.527 134.064-74.644 180.178-46.113 46.109-109.822 74.635-180.191 74.635-70.368 0-134.067-28.523-180.176-74.632-46.112-46.112-74.633-109.821-74.633-180.181 0-70.37 28.52-134.082 74.63-180.197 46.107-46.11 109.81-74.634 180.179-74.634 70.371 0 134.08 28.525 180.194 74.639 46.116 46.114 74.641 109.823 74.641 180.192zm-78.683 176.139c45.083-45.08 72.97-107.356 72.97-176.139 0-68.792-27.886-131.072-72.967-176.153-45.079-45.08-107.362-72.964-176.154-72.964-68.791 0-131.066 27.883-176.139 72.96-45.077 45.081-72.956 107.363-72.956 176.158 0 68.783 27.88 131.063 72.959 176.142 45.074 45.073 107.346 72.957 176.136 72.957 68.79-.002 131.072-27.886 176.151-72.961z" clip-rule="evenodd"/>
  <path fill="#EE7800" fill-rule="evenodd" d="M481.239 352.934l-62.858-94.199 48.159-70.932c5.668-8.31 4.378-17.563-2.815-20.587-7.224-2.968-18.534.763-25.152 8.38l-42.854 49.228-29.606-44.431c-5.6-8.371-17.844-12.752-27.204-9.753-9.354 2.997-13.937 13.081-10.123 22.427l34.483 70.006-49.571 56.096c-6.619 7.624-7.618 20.793-2.249 29.286l12.386 19.621c5.39 8.519 14.455 8.651 20.084.33l41.639-61.396 33.794 61.973c3.813 9.345 14.873 14.763 24.586 12.15l29.824-8.146c9.707-2.667 13.072-11.677 7.477-20.053z" clip-rule="evenodd"/>
  <path fill="#48237B" fill-rule="evenodd" d="M117.148 338.245c-21.508 0-38.959-30.035-38.959-67.101 0-37.025 17.451-67.032 38.959-67.032 21.516 0 38.961 30.007 38.961 67.032 0 37.066-17.445 67.101-38.961 67.101zm0-165.736c-46.229 0-83.698 44.159-83.698 98.636 0 54.511 37.469 98.679 83.698 98.679 46.218 0 83.7-44.168 83.7-98.679 0-54.477-37.483-98.636-83.7-98.636z" clip-rule="evenodd"/>
  <path fill="#ABB913" fill-rule="evenodd" d="M226.347 145.609c-11.605-.074-15.598 9.518-14.885 19.32l.02 126.525c.369 11.879 6.245 19.183 19.586 19.374l69.739.049c11.048.196 17.037-2.352 18.076-11.427v-21.918c-.129-10.154-10.438-10.102-17.477-9.94h-28.663c-11.37-.104-13.998-1.992-14.458-13.208l.131-89.868c.22-10.498-3.422-18.851-15.043-18.93l-17.026.023z" clip-rule="evenodd"/>
</svg>